<?xml version="1.0" encoding="UTF-8" standalone="no"?>
<!DOCTYPE svg PUBLIC "-//W3C//DTD SVG 1.1//EN" "http://www.w3.org/Graphics/SVG/1.1/DTD/svg11.dtd">
<svg width="100%" height="100%" viewBox="0 0 1412 373" version="1.1" xmlns="http://www.w3.org/2000/svg" xmlns:xlink="http://www.w3.org/1999/xlink" xml:space="preserve" xmlns:serif="http://www.serif.com/" style="fill-rule:evenodd;clip-rule:evenodd;stroke-linejoin:round;stroke-miterlimit:2;">
    <g transform="matrix(1,0,0,1,-944.375,-876.826)">
        <g transform="matrix(2.10882,0,0,2.10882,-3383.7,-2341.6)">
            <g>
                <g transform="matrix(203.966,0,0,203.966,2047.68,1666.3)">
                    <path d="M0.266,0.179C0.208,0.179 0.16,0.168 0.123,0.145C0.079,0.118 0.055,0.074 0.052,0.014L0.088,0.014C0.095,0.102 0.155,0.146 0.267,0.146C0.396,0.146 0.461,0.09 0.461,-0.021L0.461,-0.111C0.441,-0.077 0.413,-0.051 0.376,-0.032C0.339,-0.013 0.299,-0.004 0.257,-0.004C0.184,-0.004 0.127,-0.027 0.086,-0.073C0.044,-0.118 0.023,-0.177 0.023,-0.25C0.023,-0.325 0.044,-0.385 0.087,-0.431C0.13,-0.477 0.189,-0.5 0.264,-0.5C0.307,-0.5 0.345,-0.49 0.379,-0.471C0.416,-0.451 0.443,-0.423 0.461,-0.388L0.461,-0.488L0.497,-0.488L0.497,-0.02C0.497,0.113 0.42,0.179 0.266,0.179ZM0.262,-0.467C0.2,-0.467 0.15,-0.446 0.112,-0.404C0.077,-0.363 0.059,-0.312 0.059,-0.251C0.059,-0.189 0.075,-0.139 0.108,-0.1C0.143,-0.058 0.192,-0.037 0.255,-0.037C0.318,-0.037 0.369,-0.057 0.406,-0.097C0.443,-0.135 0.461,-0.185 0.461,-0.248C0.461,-0.309 0.443,-0.361 0.407,-0.404C0.371,-0.446 0.323,-0.467 0.262,-0.467Z" style="fill:rgb(102,102,102);fill-rule:nonzero;"/>
                </g>
                <g transform="matrix(203.966,0,0,203.966,2158.84,1666.3)">
                    <path d="M0.054,-0.233C0.058,-0.092 0.127,-0.022 0.262,-0.022C0.307,-0.022 0.347,-0.032 0.383,-0.053C0.418,-0.074 0.443,-0.104 0.458,-0.144L0.495,-0.144C0.478,-0.089 0.447,-0.048 0.403,-0.023C0.363,0 0.315,0.011 0.26,0.011C0.18,0.011 0.119,-0.012 0.077,-0.059C0.038,-0.103 0.019,-0.164 0.019,-0.243C0.019,-0.319 0.041,-0.381 0.086,-0.429C0.13,-0.476 0.19,-0.5 0.265,-0.5C0.34,-0.5 0.399,-0.479 0.444,-0.436C0.489,-0.393 0.511,-0.335 0.511,-0.262L0.511,-0.234L0.054,-0.233ZM0.265,-0.467C0.204,-0.467 0.154,-0.449 0.117,-0.413C0.08,-0.376 0.059,-0.327 0.054,-0.266L0.469,-0.266C0.468,-0.327 0.449,-0.376 0.412,-0.413C0.375,-0.449 0.326,-0.467 0.265,-0.467Z" style="fill:rgb(102,102,102);fill-rule:nonzero;"/>
                </g>
                <path d="M2270.45,1613.92C2270.95,1599.35 2275.59,1587.58 2284.38,1578.59C2293.7,1569.07 2306.17,1564.32 2321.81,1564.32C2337.45,1564.32 2349.89,1569.07 2359.14,1578.59C2363.22,1582.79 2366.4,1587.6 2368.68,1593.02C2368.77,1593.24 2368.87,1593.46 2368.96,1593.69C2371.66,1600.11 2373.01,1607.54 2373.01,1615.97L2373.01,1616.5L2373.01,1616.53L2373.01,1616.56L2373.01,1617.05C2373.01,1625.47 2371.66,1632.87 2368.96,1639.25C2368.23,1640.98 2367.4,1642.65 2366.47,1644.24C2364.43,1647.89 2361.92,1651.23 2358.93,1654.26C2349.91,1663.41 2338,1668.17 2323.2,1668.52C2322.68,1668.53 2322.16,1668.54 2321.63,1668.54L2321.43,1668.54L2321.4,1668.54L2321.38,1668.54L2321.18,1668.54C2320.79,1668.54 2320.39,1668.54 2320,1668.53C2304.89,1668.25 2292.84,1663.36 2283.87,1653.86C2274.9,1644.47 2270.41,1632.03 2270.41,1616.53C2270.41,1616.13 2270.41,1615.74 2270.42,1615.35C2270.42,1615.14 2270.41,1614.94 2270.41,1614.73L2270.41,1614.42C2270.43,1614.25 2270.44,1614.09 2270.45,1613.92ZM2318.64,1661.74L2318.64,1639.86C2316.84,1640.38 2315.22,1640.79 2313.77,1641.1C2312.32,1641.41 2311,1641.71 2309.8,1642.02C2308.6,1642.33 2307.58,1642.64 2306.73,1642.95C2305.88,1643.26 2305.16,1643.56 2304.56,1643.87C2305.06,1644.9 2305.53,1645.93 2305.98,1646.96C2306.43,1647.98 2306.86,1648.91 2307.26,1649.73C2307.76,1650.55 2308.23,1651.35 2308.68,1652.12C2309.13,1652.89 2309.55,1653.69 2309.95,1654.51C2310.05,1654.61 2310.15,1654.77 2310.25,1654.97C2310.35,1655.18 2310.45,1655.33 2310.55,1655.44C2310.65,1655.64 2310.75,1655.82 2310.85,1655.98C2310.95,1656.13 2311.05,1656.31 2311.15,1656.52C2311.25,1656.62 2311.35,1656.77 2311.45,1656.98C2311.55,1657.18 2311.65,1657.34 2311.75,1657.44C2311.85,1657.65 2311.95,1657.83 2312.05,1657.98C2312.15,1658.13 2312.25,1658.31 2312.35,1658.52C2312.55,1658.93 2312.75,1659.32 2312.95,1659.68C2313.15,1660.04 2313.4,1660.42 2313.7,1660.83C2313.78,1661 2313.86,1661.16 2313.95,1661.32C2315.47,1661.53 2317.03,1661.66 2318.64,1661.74ZM2324.63,1661.74C2326.44,1661.65 2328.2,1661.48 2329.91,1661.24C2330.1,1660.94 2330.34,1660.6 2330.62,1660.22C2330.92,1659.81 2331.22,1659.39 2331.52,1658.98C2332.12,1658.16 2332.69,1657.31 2333.24,1656.44C2333.79,1655.57 2334.32,1654.66 2334.81,1653.74C2335.01,1653.23 2335.24,1652.76 2335.49,1652.35C2335.74,1651.94 2336.01,1651.48 2336.31,1650.97C2336.51,1650.55 2336.74,1650.12 2336.99,1649.65C2337.24,1649.19 2337.46,1648.76 2337.66,1648.34C2338.16,1647.52 2338.58,1646.73 2338.93,1645.95C2339.28,1645.18 2339.61,1644.49 2339.91,1643.87C2339.01,1643.56 2338.08,1643.26 2337.14,1642.95C2336.19,1642.64 2335.16,1642.33 2334.07,1642.02C2332.97,1641.71 2331.62,1641.41 2330.02,1641.1C2328.42,1640.79 2326.63,1640.48 2324.63,1640.17L2324.63,1661.74ZM2306.71,1658.75C2306.33,1658.21 2305.96,1657.67 2305.61,1657.13C2305.21,1656.52 2304.83,1655.9 2304.49,1655.28C2304.14,1654.66 2303.81,1654.05 2303.51,1653.43C2303.11,1652.92 2302.76,1652.35 2302.46,1651.74L2299.77,1646.18L2299.77,1645.88C2299.17,1646.39 2298.52,1646.83 2297.82,1647.19C2297.12,1647.55 2296.37,1647.88 2295.57,1648.19C2295.17,1648.39 2294.75,1648.6 2294.3,1648.81C2293.85,1649.01 2293.43,1649.22 2293.03,1649.42C2292.53,1649.73 2292.08,1650.01 2291.68,1650.27C2291.45,1650.42 2291.21,1650.57 2290.95,1650.74C2295.61,1655.18 2301.18,1658.29 2307.64,1660.06C2307.45,1659.78 2307.25,1659.5 2307.05,1659.21L2306.71,1658.75ZM2352.62,1650.48L2352.41,1650.27C2352.16,1650.01 2351.94,1649.73 2351.74,1649.42C2351.44,1649.22 2351.14,1648.99 2350.84,1648.73C2350.54,1648.47 2350.19,1648.19 2349.79,1647.88C2349.49,1647.68 2349.17,1647.47 2348.82,1647.27C2348.47,1647.06 2348.04,1646.85 2347.55,1646.65C2347.14,1646.44 2346.7,1646.21 2346.2,1645.95C2345.7,1645.7 2345.2,1645.41 2344.7,1645.11C2344.4,1645.72 2344,1646.52 2343.5,1647.5C2343,1648.47 2342.4,1649.68 2341.7,1651.12C2341,1652.56 2340.11,1654.1 2339.01,1655.75C2338.09,1657.11 2337.07,1658.52 2335.95,1659.96C2342.4,1658.14 2347.95,1654.98 2352.62,1650.48ZM2293.93,1617.97L2277.77,1617.97C2278.01,1629.69 2281.27,1639.39 2287.54,1647.06C2287.72,1646.95 2287.9,1646.84 2288.08,1646.73C2288.48,1646.47 2288.88,1646.24 2289.28,1646.03C2289.78,1645.83 2290.26,1645.59 2290.7,1645.34C2291.16,1645.08 2291.58,1644.85 2291.98,1644.64C2292.48,1644.44 2292.98,1644.21 2293.48,1643.95C2293.98,1643.69 2294.53,1643.41 2295.12,1643.1C2295.62,1642.9 2296.17,1642.64 2296.77,1642.33C2297.37,1642.02 2298.02,1641.71 2298.72,1641.41C2298.12,1639.66 2297.55,1637.86 2297,1636.01C2296.45,1634.16 2295.92,1632.26 2295.42,1630.31C2294.92,1628.45 2294.55,1626.53 2294.3,1624.52C2294.05,1622.52 2293.93,1620.44 2293.93,1618.28L2293.93,1617.97ZM2365.65,1617.97L2350.54,1617.97L2350.54,1619.05C2350.44,1620.59 2350.29,1622.13 2350.09,1623.67C2349.89,1625.22 2349.64,1626.81 2349.34,1628.45C2349.04,1630.1 2348.59,1631.87 2347.99,1633.77C2347.39,1635.67 2346.7,1637.81 2345.9,1640.17C2346.99,1640.79 2348.07,1641.41 2349.12,1642.02C2350.17,1642.64 2351.14,1643.26 2352.04,1643.87C2352.94,1644.49 2353.74,1645.11 2354.43,1645.72C2354.93,1646.16 2355.41,1646.58 2355.86,1646.97C2362.14,1639.31 2365.4,1629.65 2365.65,1617.97ZM2318.64,1617.97L2298.72,1617.97C2298.72,1618.79 2298.74,1619.59 2298.79,1620.36C2298.84,1621.13 2298.92,1621.98 2299.02,1622.9C2299.19,1623.71 2299.35,1624.52 2299.49,1625.33L2299.6,1626.03C2299.74,1626.84 2299.89,1627.64 2300.07,1628.45C2300.27,1629.48 2300.49,1630.48 2300.74,1631.46C2300.99,1632.44 2301.26,1633.39 2301.56,1634.31C2301.86,1635.24 2302.16,1636.09 2302.46,1636.86C2302.76,1637.63 2303.06,1638.32 2303.36,1638.94C2304.76,1638.42 2306.01,1638.01 2307.11,1637.7C2308.2,1637.4 2309.2,1637.09 2310.1,1636.78C2311,1636.47 2311.9,1636.22 2312.8,1636.01C2313.7,1635.8 2314.59,1635.65 2315.49,1635.55L2317.44,1635.55C2317.54,1635.55 2317.69,1635.5 2317.89,1635.39L2318.64,1635.39L2318.64,1617.97ZM2345.9,1617.97L2324.63,1617.97L2324.63,1635.08C2325.13,1635.29 2325.65,1635.42 2326.2,1635.47C2326.75,1635.52 2327.38,1635.6 2328.07,1635.7C2328.37,1635.8 2328.67,1635.88 2328.97,1635.93C2329.27,1635.98 2329.62,1636.01 2330.02,1636.01C2330.32,1636.11 2330.64,1636.19 2330.99,1636.24C2331.34,1636.29 2331.72,1636.37 2332.12,1636.47C2332.42,1636.58 2332.74,1636.65 2333.09,1636.7C2333.44,1636.76 2333.82,1636.83 2334.22,1636.93C2334.61,1637.04 2334.99,1637.14 2335.34,1637.24C2335.69,1637.35 2336.06,1637.45 2336.46,1637.55C2336.66,1637.65 2336.89,1637.73 2337.14,1637.78C2337.39,1637.83 2337.61,1637.86 2337.81,1637.86C2337.98,1637.95 2338.16,1638.02 2338.33,1638.07L2338.48,1638.11C2338.66,1638.16 2338.83,1638.23 2339.01,1638.32C2339.41,1638.42 2339.78,1638.53 2340.13,1638.63C2340.48,1638.73 2340.8,1638.84 2341.1,1638.94C2342,1636.58 2342.75,1634.39 2343.35,1632.39C2343.95,1630.38 2344.45,1628.56 2344.85,1626.91C2345.15,1625.27 2345.4,1623.73 2345.6,1622.29C2345.8,1620.85 2345.9,1619.51 2345.9,1618.28L2345.9,1617.97ZM2309.54,1595.21C2309.28,1595.16 2309.01,1595.09 2308.75,1595C2308.35,1594.89 2308,1594.79 2307.7,1594.69C2307.41,1594.59 2307.11,1594.48 2306.81,1594.38C2306.21,1594.17 2305.61,1593.94 2305.01,1593.69C2304.41,1593.43 2303.86,1593.15 2303.36,1592.84C2302.96,1593.56 2302.56,1594.36 2302.16,1595.23C2301.76,1596.1 2301.41,1597 2301.12,1597.93C2300.82,1598.85 2300.54,1599.78 2300.29,1600.7C2300.04,1601.63 2299.82,1602.55 2299.62,1603.48C2299.52,1604.4 2299.39,1605.3 2299.24,1606.17C2299.09,1607.05 2298.97,1607.9 2298.87,1608.72C2298.77,1609.54 2298.72,1610.34 2298.72,1611.11L2298.72,1613.5L2318.64,1613.19L2318.64,1596.23C2318.54,1596.33 2318.39,1596.41 2318.19,1596.46C2317.99,1596.51 2317.84,1596.54 2317.74,1596.54L2316.17,1596.54C2316.02,1596.54 2315.84,1596.49 2315.64,1596.38L2314.74,1596.38C2314.05,1596.28 2313.35,1596.15 2312.65,1596C2311.95,1595.85 2311.25,1595.66 2310.55,1595.46C2310.29,1595.37 2310.03,1595.3 2309.76,1595.25L2309.54,1595.21ZM2355.02,1584.58C2354.7,1585.07 2354.36,1585.52 2353.99,1585.9C2353.49,1586.41 2352.99,1586.88 2352.49,1587.29C2351.99,1587.7 2351.46,1588.06 2350.91,1588.37C2350.37,1588.68 2349.79,1588.98 2349.19,1589.29C2348.79,1589.5 2348.42,1589.7 2348.07,1589.91C2347.72,1590.12 2347.35,1590.32 2346.95,1590.53C2346.75,1590.63 2346.55,1590.73 2346.35,1590.83C2346.15,1590.94 2346,1590.99 2345.9,1590.99L2344.7,1591.61C2344.87,1591.88 2345.01,1592.14 2345.11,1592.41L2345.19,1592.65C2345.29,1592.92 2345.42,1593.18 2345.6,1593.45C2345.7,1593.87 2345.82,1594.23 2345.97,1594.54C2346.12,1594.84 2346.25,1595.15 2346.35,1595.46C2346.65,1596.18 2346.92,1596.87 2347.17,1597.54C2347.42,1598.21 2347.64,1598.85 2347.84,1599.47C2348.24,1600.7 2348.59,1601.93 2348.89,1603.17C2349.19,1604.4 2349.49,1605.64 2349.79,1606.87C2349.99,1608.1 2350.17,1609.26 2350.32,1610.34C2350.47,1611.42 2350.54,1612.47 2350.54,1613.5L2365.59,1613.22C2365.03,1601.53 2361.51,1591.98 2355.02,1584.58ZM2288.4,1584.68C2281.86,1592.19 2278.34,1601.78 2277.82,1613.47L2293.93,1613.19C2293.93,1611.24 2294.05,1609.26 2294.3,1607.25C2294.55,1605.25 2294.92,1603.27 2295.42,1601.32C2295.92,1599.26 2296.45,1597.44 2297,1595.85C2297.55,1594.25 2298.12,1592.84 2298.72,1591.61L2298.72,1591.3C2298.12,1591.19 2297.52,1590.99 2296.92,1590.68C2296.32,1590.37 2295.77,1590.06 2295.27,1589.76C2294.77,1589.45 2294.3,1589.14 2293.85,1588.83C2293.4,1588.52 2292.93,1588.21 2292.43,1587.9C2292.03,1587.7 2291.6,1587.44 2291.16,1587.13C2290.7,1586.83 2290.33,1586.52 2290.03,1586.21C2289.63,1585.9 2289.28,1585.59 2288.98,1585.28L2288.4,1584.68ZM2324.63,1596.54L2324.63,1613.19L2345.9,1613.19C2345.9,1612.78 2345.87,1612.34 2345.82,1611.88C2345.77,1611.42 2345.7,1610.88 2345.6,1610.26C2345.5,1609.75 2345.42,1609.18 2345.37,1608.57C2345.32,1607.95 2345.25,1607.33 2345.15,1606.72C2345.05,1606.2 2344.95,1605.74 2344.85,1605.33C2344.75,1604.92 2344.6,1604.45 2344.4,1603.94C2344.3,1603.53 2344.2,1603.09 2344.1,1602.63C2344,1602.17 2343.85,1601.73 2343.65,1601.32C2343.35,1600.5 2343.05,1599.67 2342.75,1598.85C2342.45,1598.03 2342.15,1597.26 2341.85,1596.54C2341.75,1596.33 2341.65,1596.15 2341.55,1596C2341.45,1595.85 2341.4,1595.66 2341.4,1595.46C2341.3,1595.36 2341.2,1595.2 2341.1,1595C2341,1594.79 2340.91,1594.64 2340.8,1594.54C2340.7,1594.23 2340.58,1593.92 2340.43,1593.61C2340.28,1593.3 2340.11,1593.04 2339.91,1592.84C2339.11,1593.45 2338.18,1593.97 2337.14,1594.38C2336.09,1594.79 2334.91,1595.15 2333.62,1595.46C2332.92,1595.56 2332.24,1595.69 2331.59,1595.85C2330.95,1596 2330.32,1596.13 2329.72,1596.23C2329.02,1596.33 2328.35,1596.41 2327.7,1596.46C2327.05,1596.51 2326.38,1596.54 2325.68,1596.54L2324.63,1596.54ZM2318.64,1571.11C2316.74,1571.2 2314.89,1571.38 2313.11,1571.64L2313.02,1571.79C2312.87,1572.05 2312.7,1572.28 2312.5,1572.49C2312.4,1572.8 2312.27,1573.08 2312.12,1573.34C2311.97,1573.59 2311.8,1573.82 2311.6,1574.03C2311.3,1574.44 2311,1574.88 2310.7,1575.34C2310.4,1575.8 2310.15,1576.29 2309.95,1576.8C2309.85,1577.01 2309.73,1577.24 2309.58,1577.5C2309.43,1577.75 2309.3,1577.99 2309.2,1578.19C2309,1578.5 2308.85,1578.78 2308.75,1579.04C2308.65,1579.3 2308.55,1579.53 2308.45,1579.73C2308.05,1580.45 2307.66,1581.17 2307.26,1581.89C2306.86,1582.61 2306.51,1583.33 2306.21,1584.05C2305.91,1584.77 2305.61,1585.44 2305.31,1586.06C2305.01,1586.67 2304.76,1587.29 2304.56,1587.9C2305.06,1588.21 2305.56,1588.52 2306.06,1588.83C2306.56,1589.14 2307.11,1589.39 2307.7,1589.6C2308.3,1589.81 2308.9,1589.99 2309.5,1590.14C2310.1,1590.3 2310.75,1590.47 2311.45,1590.68C2312.15,1590.78 2312.82,1590.91 2313.47,1591.07C2314.12,1591.22 2314.74,1591.35 2315.34,1591.45C2315.94,1591.55 2316.54,1591.61 2317.14,1591.61L2318.64,1591.61L2318.64,1571.11ZM2324.63,1571.12L2324.63,1591.3C2325.03,1591.5 2325.43,1591.61 2325.83,1591.61L2327.03,1591.61C2327.53,1591.61 2328,1591.55 2328.45,1591.45C2328.9,1591.35 2329.32,1591.25 2329.72,1591.14C2330.52,1590.94 2331.34,1590.76 2332.19,1590.6C2333.04,1590.45 2333.87,1590.22 2334.66,1589.91C2335.46,1589.7 2336.19,1589.42 2336.84,1589.06C2337.49,1588.7 2338.11,1588.32 2338.71,1587.9C2337.81,1585.85 2336.91,1583.9 2336.01,1582.05C2335.11,1580.2 2334.22,1578.5 2333.32,1576.96C2332.32,1575.42 2331.29,1573.93 2330.25,1572.49C2330.01,1572.17 2329.78,1571.86 2329.55,1571.55C2327.95,1571.34 2326.32,1571.19 2324.63,1571.12ZM2307.07,1572.92C2301.28,1574.57 2296.24,1577.29 2291.95,1581.09L2292.43,1581.58C2292.73,1581.89 2293.03,1582.15 2293.33,1582.35C2293.63,1582.56 2293.93,1582.79 2294.22,1583.05C2294.53,1583.31 2294.87,1583.54 2295.27,1583.74C2295.57,1583.95 2295.9,1584.18 2296.25,1584.44C2296.6,1584.69 2296.97,1584.92 2297.37,1585.13C2297.55,1585.22 2297.7,1585.33 2297.84,1585.46L2297.95,1585.57C2298.09,1585.7 2298.24,1585.81 2298.42,1585.9C2298.59,1586.08 2298.79,1586.22 2299,1586.32L2299.18,1586.4C2299.4,1586.51 2299.59,1586.65 2299.77,1586.83C2300.27,1585.39 2300.84,1584.02 2301.49,1582.74C2302.14,1581.45 2302.81,1580.14 2303.51,1578.81C2304.31,1577.47 2305.08,1576.19 2305.83,1574.95C2306.25,1574.26 2306.67,1573.58 2307.07,1572.92ZM2336.71,1573.03C2336.85,1573.23 2336.99,1573.44 2337.14,1573.64C2338.08,1575.03 2338.91,1576.44 2339.61,1577.88C2340.31,1579.32 2340.98,1580.79 2341.63,1582.28C2342.28,1583.77 2342.9,1585.28 2343.5,1586.83C2343.8,1586.62 2344.12,1586.44 2344.47,1586.29C2344.82,1586.13 2345.2,1585.95 2345.6,1585.75C2346.1,1585.54 2346.57,1585.31 2347.02,1585.05C2347.47,1584.8 2347.89,1584.51 2348.29,1584.2C2348.69,1584 2349.09,1583.74 2349.49,1583.43C2349.89,1583.12 2350.29,1582.82 2350.69,1582.51C2351.19,1582.2 2351.61,1581.89 2351.96,1581.58L2352.03,1581.52C2347.73,1577.58 2342.62,1574.75 2336.71,1573.03Z" style="fill:rgb(102,102,102);fill-rule:nonzero;"/>
            </g>
            <g>
                <g transform="matrix(203.966,0,0,203.966,2377.09,1666.3)">
                    <path d="M0.441,0.001L0.441,-0.047C0.394,-0.008 0.334,0.011 0.26,0.011C0.176,0.011 0.109,-0.015 0.06,-0.067C0.014,-0.115 -0.009,-0.177 -0.009,-0.252C-0.009,-0.329 0.014,-0.392 0.061,-0.44C0.11,-0.492 0.178,-0.518 0.264,-0.518C0.335,-0.518 0.394,-0.499 0.441,-0.462L0.441,-0.678L0.537,-0.678L0.537,0.001L0.441,0.001ZM0.394,-0.383C0.363,-0.415 0.318,-0.431 0.259,-0.431C0.205,-0.431 0.163,-0.414 0.133,-0.381C0.102,-0.347 0.087,-0.304 0.087,-0.252C0.087,-0.2 0.101,-0.158 0.13,-0.127C0.161,-0.093 0.204,-0.076 0.259,-0.076C0.314,-0.076 0.359,-0.093 0.392,-0.126C0.425,-0.159 0.441,-0.201 0.441,-0.252C0.441,-0.307 0.425,-0.351 0.394,-0.383Z" style="fill:rgb(242,175,13);fill-rule:nonzero;"/>
                </g>
                <g transform="matrix(203.966,0,0,203.966,2492.12,1666.3)">
                    <path d="M0.067,-0.541C0.046,-0.541 0.03,-0.553 0.021,-0.577L0.021,-0.651C0.032,-0.675 0.048,-0.687 0.067,-0.687C0.082,-0.687 0.099,-0.677 0.117,-0.656L0.117,-0.571C0.1,-0.551 0.083,-0.541 0.067,-0.541ZM0.021,0L0.021,-0.508L0.117,-0.508L0.117,0L0.021,0Z" style="fill:rgb(242,175,13);fill-rule:nonzero;"/>
                </g>
                <g transform="matrix(203.966,0,0,203.966,2519.86,1666.3)">
                    <path d="M0.393,-0.016C0.356,0.003 0.308,0.013 0.249,0.013C0.086,0.013 0.004,-0.062 0.004,-0.213L0.102,-0.213C0.102,-0.161 0.113,-0.125 0.135,-0.105C0.157,-0.084 0.195,-0.074 0.25,-0.074C0.333,-0.074 0.375,-0.095 0.375,-0.138C0.375,-0.164 0.348,-0.183 0.293,-0.194C0.288,-0.195 0.255,-0.199 0.193,-0.208C0.081,-0.224 0.025,-0.271 0.025,-0.349C0.025,-0.4 0.048,-0.439 0.095,-0.466C0.134,-0.489 0.179,-0.501 0.232,-0.501C0.39,-0.501 0.469,-0.432 0.47,-0.295L0.371,-0.295C0.371,-0.34 0.361,-0.371 0.342,-0.388C0.322,-0.405 0.287,-0.414 0.237,-0.414C0.204,-0.414 0.176,-0.408 0.155,-0.396C0.134,-0.384 0.123,-0.368 0.123,-0.349C0.123,-0.324 0.149,-0.308 0.202,-0.299C0.219,-0.296 0.254,-0.29 0.307,-0.281C0.418,-0.264 0.473,-0.216 0.473,-0.138C0.473,-0.083 0.446,-0.043 0.393,-0.016Z" style="fill:rgb(242,175,13);fill-rule:nonzero;"/>
                </g>
                <g transform="matrix(203.966,0,0,203.966,2618.99,1666.3)">
                    <path d="M0.241,0.179C0.178,0.179 0.125,0.167 0.083,0.143C0.03,0.113 0.001,0.056 -0.004,-0.029L0.091,-0.029C0.096,0.017 0.11,0.049 0.135,0.067C0.157,0.084 0.193,0.092 0.243,0.092C0.346,0.092 0.4,0.056 0.406,-0.015C0.363,0.014 0.311,0.029 0.25,0.029C0.183,0.029 0.129,0.013 0.088,-0.018C0.043,-0.053 0.021,-0.102 0.021,-0.166L0.021,-0.488L0.117,-0.488L0.117,-0.167C0.117,-0.095 0.161,-0.059 0.25,-0.059C0.355,-0.059 0.407,-0.111 0.407,-0.216L0.407,-0.488L0.503,-0.488L0.503,-0.031C0.503,0.038 0.48,0.091 0.435,0.126C0.389,0.161 0.324,0.179 0.241,0.179Z" style="fill:rgb(242,175,13);fill-rule:nonzero;"/>
                </g>
            </g>
        </g>
    </g>
</svg>
